<mxfile host="app.diagrams.net" agent="Mozilla/5.0 (X11; Ubuntu; Linux x86_64; rv:130.0) Gecko/20100101 Firefox/130.0" version="24.7.17">
  <diagram id="dj4Q9NSnNS7XpiTatibL" name="Page-1">
    <mxGraphModel grid="1" page="1" gridSize="10" guides="1" tooltips="1" connect="1" arrows="1" fold="1" pageScale="1" pageWidth="850" pageHeight="1100" math="0" shadow="0">
      <root>
        <mxCell id="0" />
        <mxCell id="1" parent="0" />
        <mxCell id="36" value="&lt;b&gt;&lt;br&gt;&lt;/b&gt;" style="ellipse;whiteSpace=wrap;html=1;fontColor=#000000;fillColor=#E5CCFF;strokeColor=#330066;" vertex="1" parent="1">
          <mxGeometry x="460" y="630" width="140" height="95" as="geometry" />
        </mxCell>
        <mxCell id="12" style="edgeStyle=none;html=1;exitX=0.5;exitY=0;exitDx=0;exitDy=0;entryX=1;entryY=1;entryDx=0;entryDy=0;fontColor=#000000;endArrow=none;endFill=0;" edge="1" parent="1" source="2" target="4">
          <mxGeometry relative="1" as="geometry" />
        </mxCell>
        <mxCell id="15" style="edgeStyle=none;html=1;exitX=0;exitY=0.5;exitDx=0;exitDy=0;entryX=1;entryY=0.5;entryDx=0;entryDy=0;fontColor=#000000;endArrow=none;endFill=0;" edge="1" parent="1" source="2" target="11">
          <mxGeometry relative="1" as="geometry" />
        </mxCell>
        <mxCell id="17" style="edgeStyle=none;html=1;exitX=0.5;exitY=1;exitDx=0;exitDy=0;entryX=0;entryY=0;entryDx=0;entryDy=0;fontColor=#000000;endArrow=none;endFill=0;" edge="1" parent="1" source="2" target="7">
          <mxGeometry relative="1" as="geometry" />
        </mxCell>
        <mxCell id="18" style="edgeStyle=none;html=1;exitX=0.5;exitY=1;exitDx=0;exitDy=0;entryX=1;entryY=0;entryDx=0;entryDy=0;fontColor=#000000;endArrow=none;endFill=0;" edge="1" parent="1" source="2" target="6">
          <mxGeometry relative="1" as="geometry" />
        </mxCell>
        <mxCell id="45" style="edgeStyle=none;html=1;exitX=1;exitY=0.5;exitDx=0;exitDy=0;entryX=0;entryY=0.5;entryDx=0;entryDy=0;fontColor=#000000;endArrow=none;endFill=0;" edge="1" parent="1" source="2" target="44">
          <mxGeometry relative="1" as="geometry" />
        </mxCell>
        <mxCell id="8UYPgfKLzSaXdAvaArR6-121" value="Tiene" style="edgeLabel;html=1;align=center;verticalAlign=middle;resizable=0;points=[];" vertex="1" connectable="0" parent="45">
          <mxGeometry x="0.1043" y="-3" relative="1" as="geometry">
            <mxPoint x="3" y="-3" as="offset" />
          </mxGeometry>
        </mxCell>
        <mxCell id="91" style="edgeStyle=none;html=1;exitX=0.5;exitY=1;exitDx=0;exitDy=0;entryX=0;entryY=0.5;entryDx=0;entryDy=0;fontColor=#000000;endArrow=none;endFill=0;" edge="1" parent="1" source="2" target="10">
          <mxGeometry relative="1" as="geometry" />
        </mxCell>
        <mxCell id="92" style="edgeStyle=none;html=1;exitX=0.5;exitY=1;exitDx=0;exitDy=0;entryX=0.5;entryY=0;entryDx=0;entryDy=0;fontColor=#000000;endArrow=none;endFill=0;" edge="1" parent="1" source="2" target="90">
          <mxGeometry relative="1" as="geometry" />
        </mxCell>
        <mxCell id="8UYPgfKLzSaXdAvaArR6-127" value="Fabrica" style="edgeLabel;html=1;align=center;verticalAlign=middle;resizable=0;points=[];" vertex="1" connectable="0" parent="92">
          <mxGeometry x="0.0273" relative="1" as="geometry">
            <mxPoint as="offset" />
          </mxGeometry>
        </mxCell>
        <mxCell id="98" style="edgeStyle=none;html=1;exitX=0.5;exitY=0;exitDx=0;exitDy=0;entryX=1;entryY=0.5;entryDx=0;entryDy=0;fontColor=#000000;endArrow=none;endFill=0;" edge="1" parent="1" source="2" target="5">
          <mxGeometry relative="1" as="geometry" />
        </mxCell>
        <mxCell id="99" style="edgeStyle=none;html=1;exitX=0.5;exitY=0;exitDx=0;exitDy=0;entryX=0.5;entryY=1;entryDx=0;entryDy=0;fontColor=#000000;endArrow=none;endFill=0;" edge="1" parent="1" source="2" target="97">
          <mxGeometry relative="1" as="geometry" />
        </mxCell>
        <mxCell id="102" style="edgeStyle=none;html=1;exitX=0.5;exitY=1;exitDx=0;exitDy=0;entryX=1;entryY=0;entryDx=0;entryDy=0;fontColor=#000000;endArrow=none;endFill=0;" edge="1" parent="1" source="2" target="9">
          <mxGeometry relative="1" as="geometry" />
        </mxCell>
        <mxCell id="104" style="edgeStyle=none;html=1;exitX=0.75;exitY=0;exitDx=0;exitDy=0;fontColor=#000000;endArrow=none;endFill=0;entryX=1;entryY=0.5;entryDx=0;entryDy=0;" edge="1" parent="1" source="2" target="97">
          <mxGeometry relative="1" as="geometry">
            <mxPoint x="560" y="120" as="targetPoint" />
            <Array as="points">
              <mxPoint x="380" y="180" />
              <mxPoint x="380" y="120" />
              <mxPoint x="520" y="120" />
              <mxPoint x="520" />
            </Array>
          </mxGeometry>
        </mxCell>
        <mxCell id="8UYPgfKLzSaXdAvaArR6-150" value="Tiene" style="edgeStyle=orthogonalEdgeStyle;rounded=0;orthogonalLoop=1;jettySize=auto;html=1;exitX=1;exitY=0;exitDx=0;exitDy=0;entryX=0;entryY=0.5;entryDx=0;entryDy=0;endArrow=none;endFill=0;" edge="1" parent="1" source="2" target="8UYPgfKLzSaXdAvaArR6-149">
          <mxGeometry x="0.2234" relative="1" as="geometry">
            <Array as="points">
              <mxPoint x="490" y="240" />
              <mxPoint x="490" y="164" />
            </Array>
            <mxPoint x="-1" as="offset" />
          </mxGeometry>
        </mxCell>
        <mxCell id="2" value="&lt;font color=&quot;#000000&quot;&gt;&lt;b&gt;Medicamento&lt;/b&gt;&lt;/font&gt;" style="rounded=0;whiteSpace=wrap;html=1;fillColor=#E5CCFF;fontColor=#ffffff;strokeColor=#3700CC;" vertex="1" parent="1">
          <mxGeometry x="290" y="240" width="120" height="60" as="geometry" />
        </mxCell>
        <mxCell id="4" value="&lt;b&gt;CÃ³digo&lt;br&gt;&lt;/b&gt;" style="ellipse;whiteSpace=wrap;html=1;fontColor=#ffffff;fillColor=#B266FF;strokeColor=#3700CC;" vertex="1" parent="1">
          <mxGeometry x="110" y="30" width="120" height="80" as="geometry" />
        </mxCell>
        <mxCell id="5" value="&lt;b&gt;Nombre&lt;br&gt;&lt;/b&gt;" style="ellipse;whiteSpace=wrap;html=1;fontColor=#000000;fillColor=#B9E0A5;strokeColor=#330066;" vertex="1" parent="1">
          <mxGeometry x="110" y="130" width="120" height="80" as="geometry" />
        </mxCell>
        <mxCell id="6" value="&lt;b&gt;Unidades-Stock&lt;br&gt;&lt;/b&gt;" style="ellipse;whiteSpace=wrap;html=1;fontColor=#000000;fillColor=#E5CCFF;strokeColor=#330066;" vertex="1" parent="1">
          <mxGeometry x="110" y="330" width="120" height="80" as="geometry" />
        </mxCell>
        <mxCell id="7" value="&lt;b&gt;Precio&lt;br&gt;&lt;/b&gt;" style="ellipse;whiteSpace=wrap;html=1;fontColor=#000000;fillColor=#E5CCFF;strokeColor=#330066;" vertex="1" parent="1">
          <mxGeometry x="480" y="413.75" width="120" height="80" as="geometry" />
        </mxCell>
        <mxCell id="9" value="&lt;b&gt;Tipo&lt;br&gt;&lt;/b&gt;" style="ellipse;whiteSpace=wrap;html=1;fontColor=#000000;fillColor=#E5CCFF;strokeColor=#330066;" vertex="1" parent="1">
          <mxGeometry x="110" y="430" width="120" height="80" as="geometry" />
        </mxCell>
        <mxCell id="10" value="&lt;b&gt;Unidades vendidas&lt;br&gt;&lt;/b&gt;" style="ellipse;whiteSpace=wrap;html=1;fontColor=#000000;fillColor=#E5CCFF;strokeColor=#330066;" vertex="1" parent="1">
          <mxGeometry x="480" y="300" width="120" height="80" as="geometry" />
        </mxCell>
        <mxCell id="11" value="&lt;b&gt;Tipo de venta&lt;br&gt;&lt;/b&gt;" style="ellipse;whiteSpace=wrap;html=1;fontColor=#000000;fillColor=#E5CCFF;strokeColor=#330066;" vertex="1" parent="1">
          <mxGeometry x="110" y="230" width="120" height="80" as="geometry" />
        </mxCell>
        <mxCell id="21" style="edgeStyle=none;html=1;exitX=0.5;exitY=0;exitDx=0;exitDy=0;entryX=1;entryY=1;entryDx=0;entryDy=0;fontColor=#000000;endArrow=none;endFill=0;" edge="1" parent="1" source="28" target="29">
          <mxGeometry relative="1" as="geometry" />
        </mxCell>
        <mxCell id="23" style="edgeStyle=none;html=1;exitX=0.5;exitY=0;exitDx=0;exitDy=0;entryX=0;entryY=1;entryDx=0;entryDy=0;fontColor=#000000;endArrow=none;endFill=0;" edge="1" parent="1" source="28" target="33">
          <mxGeometry relative="1" as="geometry" />
        </mxCell>
        <mxCell id="24" style="edgeStyle=none;html=1;exitX=0;exitY=0.5;exitDx=0;exitDy=0;entryX=1;entryY=0.5;entryDx=0;entryDy=0;fontColor=#000000;endArrow=none;endFill=0;" edge="1" parent="1" source="28" target="35">
          <mxGeometry relative="1" as="geometry" />
        </mxCell>
        <mxCell id="25" style="edgeStyle=none;html=1;exitX=0.5;exitY=1;exitDx=0;exitDy=0;entryX=0.5;entryY=0;entryDx=0;entryDy=0;fontColor=#000000;endArrow=none;endFill=0;" edge="1" parent="1" source="28" target="34">
          <mxGeometry relative="1" as="geometry" />
        </mxCell>
        <mxCell id="26" style="edgeStyle=none;html=1;exitX=0.5;exitY=1;exitDx=0;exitDy=0;entryX=0;entryY=0;entryDx=0;entryDy=0;fontColor=#000000;endArrow=none;endFill=0;" edge="1" parent="1" source="28" target="32">
          <mxGeometry relative="1" as="geometry" />
        </mxCell>
        <mxCell id="27" style="edgeStyle=none;html=1;exitX=0.5;exitY=1;exitDx=0;exitDy=0;entryX=1;entryY=0;entryDx=0;entryDy=0;fontColor=#000000;endArrow=none;endFill=0;" edge="1" parent="1" source="28" target="31">
          <mxGeometry relative="1" as="geometry" />
        </mxCell>
        <mxCell id="93" style="edgeStyle=none;html=1;exitX=1;exitY=0.5;exitDx=0;exitDy=0;entryX=0;entryY=0.5;entryDx=0;entryDy=0;fontColor=#000000;endArrow=none;endFill=0;" edge="1" parent="1" source="28" target="30">
          <mxGeometry relative="1" as="geometry" />
        </mxCell>
        <mxCell id="28" value="&lt;font color=&quot;#000000&quot;&gt;&lt;b&gt;Laboratorio&lt;/b&gt;&lt;/font&gt;" style="rounded=0;whiteSpace=wrap;html=1;fillColor=#E5CCFF;fontColor=#ffffff;strokeColor=#3700CC;" vertex="1" parent="1">
          <mxGeometry x="290" y="757.5" width="120" height="60" as="geometry" />
        </mxCell>
        <mxCell id="29" value="&lt;b&gt;CÃ³digo&lt;br&gt;&lt;/b&gt;" style="ellipse;whiteSpace=wrap;html=1;fontColor=#ffffff;fillColor=#B266FF;strokeColor=#3700CC;" vertex="1" parent="1">
          <mxGeometry x="110" y="637.5" width="120" height="80" as="geometry" />
        </mxCell>
        <mxCell id="30" value="&lt;b&gt;Nombre&lt;br&gt;&lt;/b&gt;" style="ellipse;whiteSpace=wrap;html=1;fontColor=#000000;fillColor=#B9E0A5;strokeColor=#330066;" vertex="1" parent="1">
          <mxGeometry x="470" y="747.5" width="120" height="80" as="geometry" />
        </mxCell>
        <mxCell id="31" value="&lt;b&gt;Postal&lt;br&gt;&lt;/b&gt;" style="ellipse;whiteSpace=wrap;html=1;fontColor=#000000;fillColor=#E5CCFF;strokeColor=#330066;" vertex="1" parent="1">
          <mxGeometry x="110" y="847.5" width="120" height="80" as="geometry" />
        </mxCell>
        <mxCell id="40" style="edgeStyle=none;html=1;exitX=0;exitY=1;exitDx=0;exitDy=0;entryX=0.5;entryY=0;entryDx=0;entryDy=0;fontColor=#000000;endArrow=none;endFill=0;" edge="1" parent="1" source="32" target="37">
          <mxGeometry relative="1" as="geometry" />
        </mxCell>
        <mxCell id="42" style="edgeStyle=none;html=1;exitX=0.5;exitY=1;exitDx=0;exitDy=0;entryX=0.5;entryY=0;entryDx=0;entryDy=0;fontColor=#000000;endArrow=none;endFill=0;" edge="1" parent="1" source="32" target="38">
          <mxGeometry relative="1" as="geometry" />
        </mxCell>
        <mxCell id="43" style="edgeStyle=none;html=1;exitX=1;exitY=1;exitDx=0;exitDy=0;entryX=0.5;entryY=0;entryDx=0;entryDy=0;fontColor=#000000;endArrow=none;endFill=0;" edge="1" parent="1" source="32" target="39">
          <mxGeometry relative="1" as="geometry" />
        </mxCell>
        <mxCell id="32" value="&lt;b&gt;DirecciÃ³n&lt;br&gt;&lt;/b&gt;" style="ellipse;whiteSpace=wrap;html=1;fontColor=#000000;fillColor=#E5CCFF;strokeColor=#330066;" vertex="1" parent="1">
          <mxGeometry x="470" y="847.5" width="120" height="80" as="geometry" />
        </mxCell>
        <mxCell id="33" value="&lt;b&gt;TelÃ©fono&lt;br&gt;&lt;/b&gt;" style="ellipse;whiteSpace=wrap;html=1;fontColor=#000000;fillColor=#E5CCFF;strokeColor=#330066;" vertex="1" parent="1">
          <mxGeometry x="470" y="637.5" width="120" height="80" as="geometry" />
        </mxCell>
        <mxCell id="34" value="&lt;b&gt;Fax&lt;br&gt;&lt;/b&gt;" style="ellipse;whiteSpace=wrap;html=1;fontColor=#000000;fillColor=#E5CCFF;strokeColor=#330066;" vertex="1" parent="1">
          <mxGeometry x="290" y="847.5" width="120" height="80" as="geometry" />
        </mxCell>
        <mxCell id="8UYPgfKLzSaXdAvaArR6-131" style="edgeStyle=orthogonalEdgeStyle;rounded=0;orthogonalLoop=1;jettySize=auto;html=1;exitX=0;exitY=0;exitDx=0;exitDy=0;entryX=1;entryY=0.5;entryDx=0;entryDy=0;strokeColor=default;endArrow=none;endFill=0;" edge="1" parent="1" source="35" target="8UYPgfKLzSaXdAvaArR6-129">
          <mxGeometry relative="1" as="geometry" />
        </mxCell>
        <mxCell id="8UYPgfKLzSaXdAvaArR6-132" style="edgeStyle=orthogonalEdgeStyle;rounded=0;orthogonalLoop=1;jettySize=auto;html=1;exitX=0;exitY=1;exitDx=0;exitDy=0;entryX=1;entryY=0.5;entryDx=0;entryDy=0;strokeColor=default;endArrow=none;endFill=0;" edge="1" parent="1" source="35" target="8UYPgfKLzSaXdAvaArR6-130">
          <mxGeometry relative="1" as="geometry" />
        </mxCell>
        <mxCell id="35" value="&lt;b&gt;Nombre-persona de contacto&lt;br&gt;&lt;/b&gt;" style="ellipse;whiteSpace=wrap;html=1;fontColor=#000000;fillColor=#E5CCFF;strokeColor=#330066;" vertex="1" parent="1">
          <mxGeometry x="110" y="747.5" width="120" height="80" as="geometry" />
        </mxCell>
        <mxCell id="37" value="&lt;b&gt;Calle&lt;br&gt;&lt;/b&gt;" style="ellipse;whiteSpace=wrap;html=1;fontColor=#000000;fillColor=#E5CCFF;strokeColor=#330066;" vertex="1" parent="1">
          <mxGeometry x="318" y="972.5" width="120" height="80" as="geometry" />
        </mxCell>
        <mxCell id="38" value="&lt;b&gt;Nombre&lt;br&gt;&lt;/b&gt;" style="ellipse;whiteSpace=wrap;html=1;fontColor=#000000;fillColor=#E5CCFF;strokeColor=#330066;" vertex="1" parent="1">
          <mxGeometry x="470" y="972.5" width="120" height="80" as="geometry" />
        </mxCell>
        <mxCell id="39" value="&lt;b&gt;NÃºmero&lt;br&gt;&lt;/b&gt;" style="ellipse;whiteSpace=wrap;html=1;fontColor=#000000;fillColor=#E5CCFF;strokeColor=#330066;" vertex="1" parent="1">
          <mxGeometry x="620" y="972.5" width="120" height="80" as="geometry" />
        </mxCell>
        <mxCell id="63" style="edgeStyle=none;html=1;exitX=1;exitY=0.5;exitDx=0;exitDy=0;entryX=0.5;entryY=0;entryDx=0;entryDy=0;fontColor=#000000;endArrow=none;endFill=0;align=right;" edge="1" parent="1" source="44" target="54">
          <mxGeometry relative="1" as="geometry" />
        </mxCell>
        <mxCell id="8UYPgfKLzSaXdAvaArR6-122" value="Pertenece a" style="edgeLabel;html=1;align=center;verticalAlign=middle;resizable=0;points=[];" vertex="1" connectable="0" parent="63">
          <mxGeometry x="-0.0609" y="-5" relative="1" as="geometry">
            <mxPoint x="2" y="-5" as="offset" />
          </mxGeometry>
        </mxCell>
        <mxCell id="44" value="&lt;div&gt;&lt;b&gt;Pertenece a&lt;/b&gt;&lt;/div&gt;" style="rhombus;whiteSpace=wrap;html=1;strokeColor=#d6b656;fillColor=#fff2cc;" vertex="1" parent="1">
          <mxGeometry x="640" y="230" width="160" height="80" as="geometry" />
        </mxCell>
        <mxCell id="47" style="edgeStyle=none;html=1;exitX=0.5;exitY=0;exitDx=0;exitDy=0;entryX=0.5;entryY=1;entryDx=0;entryDy=0;fontColor=#000000;endArrow=none;endFill=0;" edge="1" parent="1" source="54" target="56">
          <mxGeometry relative="1" as="geometry" />
        </mxCell>
        <mxCell id="54" value="&lt;font color=&quot;#000000&quot;&gt;&lt;b&gt;Familia&lt;/b&gt;&lt;/font&gt;" style="rounded=0;whiteSpace=wrap;html=1;fillColor=#E5CCFF;fontColor=#ffffff;strokeColor=#3700CC;" vertex="1" parent="1">
          <mxGeometry x="740" y="420" width="120" height="60" as="geometry" />
        </mxCell>
        <mxCell id="56" value="&lt;font color=&quot;#ffffff&quot;&gt;&lt;b&gt;Nombre&lt;br&gt;&lt;/b&gt;&lt;/font&gt;" style="ellipse;whiteSpace=wrap;html=1;fontColor=#000000;fillColor=#B266FF;strokeColor=#330066;" vertex="1" parent="1">
          <mxGeometry x="740" y="523.75" width="120" height="80" as="geometry" />
        </mxCell>
        <mxCell id="65" value="&lt;span style=&quot;background-color: rgb(255, 255, 255);&quot;&gt;(1,1)&lt;/span&gt;" style="text;html=1;align=center;verticalAlign=middle;resizable=0;points=[];autosize=1;strokeColor=none;fillColor=none;fontColor=#000000;" vertex="1" parent="1">
          <mxGeometry x="750" y="390" width="50" height="30" as="geometry" />
        </mxCell>
        <mxCell id="66" value="&lt;span style=&quot;background-color: rgb(255, 255, 255);&quot;&gt;(1, n)&lt;/span&gt;" style="text;html=1;align=center;verticalAlign=middle;resizable=0;points=[];autosize=1;strokeColor=none;fillColor=none;fontColor=#000000;" vertex="1" parent="1">
          <mxGeometry x="400" y="270" width="50" height="30" as="geometry" />
        </mxCell>
        <mxCell id="67" value="&lt;b&gt;&lt;br&gt;&lt;/b&gt;" style="ellipse;whiteSpace=wrap;html=1;fontColor=#000000;fillColor=#E5CCFF;strokeColor=#330066;" vertex="1" parent="1">
          <mxGeometry x="1570" y="433.75" width="140" height="95" as="geometry" />
        </mxCell>
        <mxCell id="68" style="edgeStyle=none;html=1;exitX=0.5;exitY=0;exitDx=0;exitDy=0;entryX=1;entryY=1;entryDx=0;entryDy=0;fontColor=#000000;endArrow=none;endFill=0;" edge="1" parent="1" source="75" target="76">
          <mxGeometry relative="1" as="geometry" />
        </mxCell>
        <mxCell id="69" style="edgeStyle=none;html=1;exitX=0.5;exitY=0;exitDx=0;exitDy=0;entryX=0.5;entryY=1;entryDx=0;entryDy=0;fontColor=#000000;endArrow=none;endFill=0;" edge="1" parent="1" source="75" target="77">
          <mxGeometry relative="1" as="geometry" />
        </mxCell>
        <mxCell id="70" style="edgeStyle=none;html=1;entryX=0;entryY=1;entryDx=0;entryDy=0;fontColor=#000000;endArrow=none;endFill=0;" edge="1" parent="1" target="83">
          <mxGeometry relative="1" as="geometry">
            <mxPoint x="1460" y="577.75" as="sourcePoint" />
          </mxGeometry>
        </mxCell>
        <mxCell id="89" style="edgeStyle=none;html=1;entryX=0.5;entryY=0;entryDx=0;entryDy=0;fontColor=#000000;endArrow=none;endFill=0;exitX=0.5;exitY=1;exitDx=0;exitDy=0;" edge="1" parent="1" source="75" target="82">
          <mxGeometry relative="1" as="geometry">
            <mxPoint x="1855" y="781.25" as="sourcePoint" />
          </mxGeometry>
        </mxCell>
        <mxCell id="BZ3RaPWg2KNZgtzAzII2-129" style="edgeStyle=orthogonalEdgeStyle;rounded=0;orthogonalLoop=1;jettySize=auto;html=1;exitX=1;exitY=0.5;exitDx=0;exitDy=0;entryX=0;entryY=0.5;entryDx=0;entryDy=0;endArrow=none;endFill=0;" edge="1" parent="1" source="75" target="BZ3RaPWg2KNZgtzAzII2-128">
          <mxGeometry relative="1" as="geometry" />
        </mxCell>
        <mxCell id="75" value="&lt;font color=&quot;#000000&quot;&gt;&lt;b&gt;Cliente con crÃ©dito&lt;/b&gt;&lt;/font&gt;" style="rounded=0;whiteSpace=wrap;html=1;fillColor=#E5CCFF;fontColor=#ffffff;strokeColor=#3700CC;" vertex="1" parent="1">
          <mxGeometry x="1400" y="577.5" width="120" height="60" as="geometry" />
        </mxCell>
        <mxCell id="76" value="&lt;b&gt;CÃ³digo&lt;br&gt;&lt;/b&gt;" style="ellipse;whiteSpace=wrap;html=1;fontColor=#ffffff;fillColor=#B266FF;strokeColor=#3700CC;" vertex="1" parent="1">
          <mxGeometry x="1220" y="441.25" width="120" height="80" as="geometry" />
        </mxCell>
        <mxCell id="8UYPgfKLzSaXdAvaArR6-170" style="edgeStyle=orthogonalEdgeStyle;rounded=0;orthogonalLoop=1;jettySize=auto;html=1;exitX=0.5;exitY=0;exitDx=0;exitDy=0;entryX=0.5;entryY=1;entryDx=0;entryDy=0;endArrow=none;endFill=0;" edge="1" parent="1" source="77" target="8UYPgfKLzSaXdAvaArR6-168">
          <mxGeometry relative="1" as="geometry" />
        </mxCell>
        <mxCell id="8UYPgfKLzSaXdAvaArR6-171" style="edgeStyle=orthogonalEdgeStyle;rounded=0;orthogonalLoop=1;jettySize=auto;html=1;exitX=0.5;exitY=0;exitDx=0;exitDy=0;entryX=0.5;entryY=1;entryDx=0;entryDy=0;endArrow=none;endFill=0;" edge="1" parent="1" source="77" target="8UYPgfKLzSaXdAvaArR6-169">
          <mxGeometry relative="1" as="geometry" />
        </mxCell>
        <mxCell id="77" value="&lt;b&gt;Nombre&lt;br&gt;&lt;/b&gt;" style="ellipse;whiteSpace=wrap;html=1;fontColor=#000000;fillColor=#E5CCFF;strokeColor=#330066;" vertex="1" parent="1">
          <mxGeometry x="1400" y="441.25" width="120" height="80" as="geometry" />
        </mxCell>
        <mxCell id="79" style="edgeStyle=none;html=1;exitX=0;exitY=1;exitDx=0;exitDy=0;entryX=0.5;entryY=0;entryDx=0;entryDy=0;fontColor=#000000;endArrow=none;endFill=0;" edge="1" parent="1" source="82" target="86">
          <mxGeometry relative="1" as="geometry" />
        </mxCell>
        <mxCell id="80" style="edgeStyle=none;html=1;exitX=0.5;exitY=1;exitDx=0;exitDy=0;entryX=0.5;entryY=0;entryDx=0;entryDy=0;fontColor=#000000;endArrow=none;endFill=0;" edge="1" parent="1" source="82" target="87">
          <mxGeometry relative="1" as="geometry" />
        </mxCell>
        <mxCell id="81" style="edgeStyle=none;html=1;exitX=1;exitY=1;exitDx=0;exitDy=0;entryX=0.5;entryY=0;entryDx=0;entryDy=0;fontColor=#000000;endArrow=none;endFill=0;" edge="1" parent="1" source="82" target="88">
          <mxGeometry relative="1" as="geometry" />
        </mxCell>
        <mxCell id="82" value="&lt;b&gt;DirecciÃ³n&lt;br&gt;&lt;/b&gt;" style="ellipse;whiteSpace=wrap;html=1;fontColor=#000000;fillColor=#E5CCFF;strokeColor=#330066;" vertex="1" parent="1">
          <mxGeometry x="1401" y="685" width="120" height="80" as="geometry" />
        </mxCell>
        <mxCell id="83" value="&lt;b&gt;TelÃ©fono&lt;br&gt;&lt;/b&gt;" style="ellipse;whiteSpace=wrap;html=1;fontColor=#000000;fillColor=#E5CCFF;strokeColor=#330066;" vertex="1" parent="1">
          <mxGeometry x="1580" y="441.25" width="120" height="80" as="geometry" />
        </mxCell>
        <mxCell id="86" value="&lt;b&gt;Calle&lt;br&gt;&lt;/b&gt;" style="ellipse;whiteSpace=wrap;html=1;fontColor=#000000;fillColor=#E5CCFF;strokeColor=#330066;" vertex="1" parent="1">
          <mxGeometry x="1249" y="810" width="120" height="80" as="geometry" />
        </mxCell>
        <mxCell id="87" value="&lt;b&gt;Nombre&lt;br&gt;&lt;/b&gt;" style="ellipse;whiteSpace=wrap;html=1;fontColor=#000000;fillColor=#E5CCFF;strokeColor=#330066;" vertex="1" parent="1">
          <mxGeometry x="1401" y="810" width="120" height="80" as="geometry" />
        </mxCell>
        <mxCell id="88" value="&lt;b&gt;NÃºmero&lt;br&gt;&lt;/b&gt;" style="ellipse;whiteSpace=wrap;html=1;fontColor=#000000;fillColor=#E5CCFF;strokeColor=#330066;" vertex="1" parent="1">
          <mxGeometry x="1551" y="810" width="120" height="80" as="geometry" />
        </mxCell>
        <mxCell id="94" style="edgeStyle=none;html=1;exitX=0.5;exitY=1;exitDx=0;exitDy=0;entryX=0.5;entryY=0;entryDx=0;entryDy=0;fontColor=#000000;endArrow=none;endFill=0;" edge="1" parent="1" source="90" target="28">
          <mxGeometry relative="1" as="geometry" />
        </mxCell>
        <mxCell id="8UYPgfKLzSaXdAvaArR6-116" value="Es comprado de" style="edgeLabel;html=1;align=center;verticalAlign=middle;resizable=0;points=[];" vertex="1" connectable="0" parent="94">
          <mxGeometry x="-0.2254" y="-1" relative="1" as="geometry">
            <mxPoint as="offset" />
          </mxGeometry>
        </mxCell>
        <mxCell id="90" value="&lt;b&gt;Medicamento-Laboratorio&lt;/b&gt;" style="rhombus;whiteSpace=wrap;html=1;strokeColor=#d6b656;fillColor=#fff2cc;" vertex="1" parent="1">
          <mxGeometry x="270" y="520" width="160" height="80" as="geometry" />
        </mxCell>
        <mxCell id="96" value="&lt;span style=&quot;background-color: rgb(255, 255, 255);&quot;&gt;(0,1)&lt;/span&gt;" style="text;html=1;align=center;verticalAlign=middle;resizable=0;points=[];autosize=1;strokeColor=none;fillColor=none;fontColor=#000000;" vertex="1" parent="1">
          <mxGeometry x="300" y="717.5" width="50" height="30" as="geometry" />
        </mxCell>
        <mxCell id="97" value="&lt;b&gt;Farmacia Fabrica&lt;br&gt;&lt;/b&gt;" style="rhombus;whiteSpace=wrap;html=1;strokeColor=#d6b656;fillColor=#fff2cc;" vertex="1" parent="1">
          <mxGeometry x="270" y="-40" width="160" height="80" as="geometry" />
        </mxCell>
        <mxCell id="95" value="&lt;span style=&quot;background-color: rgb(255, 255, 255);&quot;&gt;(1, n)&lt;/span&gt;" style="text;html=1;align=center;verticalAlign=middle;resizable=0;points=[];autosize=1;strokeColor=none;fillColor=none;fontColor=#000000;" vertex="1" parent="1">
          <mxGeometry x="310" y="321.25" width="50" height="30" as="geometry" />
        </mxCell>
        <mxCell id="8UYPgfKLzSaXdAvaArR6-129" value="&lt;div&gt;&lt;b&gt;Nombre&lt;/b&gt;&lt;/div&gt;" style="ellipse;whiteSpace=wrap;html=1;fontColor=#000000;fillColor=#E5CCFF;strokeColor=#330066;" vertex="1" parent="1">
          <mxGeometry x="-100" y="692.5" width="120" height="80" as="geometry" />
        </mxCell>
        <mxCell id="8UYPgfKLzSaXdAvaArR6-135" style="edgeStyle=orthogonalEdgeStyle;rounded=0;orthogonalLoop=1;jettySize=auto;html=1;exitX=0;exitY=1;exitDx=0;exitDy=0;entryX=0.5;entryY=0;entryDx=0;entryDy=0;strokeColor=default;endArrow=none;endFill=0;" edge="1" parent="1" source="8UYPgfKLzSaXdAvaArR6-130" target="8UYPgfKLzSaXdAvaArR6-133">
          <mxGeometry relative="1" as="geometry" />
        </mxCell>
        <mxCell id="8UYPgfKLzSaXdAvaArR6-136" style="edgeStyle=orthogonalEdgeStyle;rounded=0;orthogonalLoop=1;jettySize=auto;html=1;exitX=1;exitY=1;exitDx=0;exitDy=0;entryX=0.5;entryY=0;entryDx=0;entryDy=0;strokeColor=default;endArrow=none;endFill=0;" edge="1" parent="1" source="8UYPgfKLzSaXdAvaArR6-130" target="8UYPgfKLzSaXdAvaArR6-134">
          <mxGeometry relative="1" as="geometry" />
        </mxCell>
        <mxCell id="8UYPgfKLzSaXdAvaArR6-130" value="&lt;b&gt;Apellidos&lt;/b&gt;" style="ellipse;whiteSpace=wrap;html=1;fontColor=#000000;fillColor=#E5CCFF;strokeColor=#330066;" vertex="1" parent="1">
          <mxGeometry x="-100" y="800" width="120" height="80" as="geometry" />
        </mxCell>
        <mxCell id="8UYPgfKLzSaXdAvaArR6-133" value="&lt;b&gt;Apellidos&lt;/b&gt; 1" style="ellipse;whiteSpace=wrap;html=1;fontColor=#000000;fillColor=#E5CCFF;strokeColor=#330066;" vertex="1" parent="1">
          <mxGeometry x="-190" y="927.5" width="120" height="80" as="geometry" />
        </mxCell>
        <mxCell id="8UYPgfKLzSaXdAvaArR6-134" value="&lt;b&gt;Apellidos&lt;/b&gt; 2" style="ellipse;whiteSpace=wrap;html=1;fontColor=#000000;fillColor=#E5CCFF;strokeColor=#330066;" vertex="1" parent="1">
          <mxGeometry y="930" width="120" height="80" as="geometry" />
        </mxCell>
        <mxCell id="BZ3RaPWg2KNZgtzAzII2-105" value="Pertenece" style="edgeStyle=orthogonalEdgeStyle;rounded=0;orthogonalLoop=1;jettySize=auto;html=1;exitX=1;exitY=0.5;exitDx=0;exitDy=0;entryX=0;entryY=0.5;entryDx=0;entryDy=0;endArrow=none;endFill=0;" edge="1" parent="1" source="8UYPgfKLzSaXdAvaArR6-149" target="BZ3RaPWg2KNZgtzAzII2-104">
          <mxGeometry relative="1" as="geometry" />
        </mxCell>
        <mxCell id="BZ3RaPWg2KNZgtzAzII2-150" style="edgeStyle=orthogonalEdgeStyle;rounded=0;orthogonalLoop=1;jettySize=auto;html=1;exitX=0.5;exitY=0;exitDx=0;exitDy=0;entryX=0.5;entryY=1;entryDx=0;entryDy=0;endArrow=none;endFill=0;" edge="1" parent="1" source="8UYPgfKLzSaXdAvaArR6-149" target="BZ3RaPWg2KNZgtzAzII2-151">
          <mxGeometry relative="1" as="geometry">
            <mxPoint x="799.6923076923076" y="80" as="targetPoint" />
          </mxGeometry>
        </mxCell>
        <mxCell id="8UYPgfKLzSaXdAvaArR6-149" value="&lt;b&gt;Pertenece&lt;/b&gt;" style="rhombus;whiteSpace=wrap;html=1;strokeColor=#d6b656;fillColor=#fff2cc;" vertex="1" parent="1">
          <mxGeometry x="720" y="123.75" width="160" height="80" as="geometry" />
        </mxCell>
        <mxCell id="p1IO3vcAz5rsAxsIEXHp-121" value="&lt;span style=&quot;background-color: rgb(255, 255, 255);&quot;&gt;(1,1)&lt;/span&gt;" style="text;html=1;align=center;verticalAlign=middle;resizable=0;points=[];autosize=1;strokeColor=none;fillColor=none;fontColor=#000000;" vertex="1" parent="1">
          <mxGeometry x="1351" y="577.5" width="50" height="30" as="geometry" />
        </mxCell>
        <mxCell id="8UYPgfKLzSaXdAvaArR6-167" value="&lt;span style=&quot;background-color: rgb(255, 255, 255);&quot;&gt;(1, n)&lt;/span&gt;" style="text;html=1;align=center;verticalAlign=middle;resizable=0;points=[];autosize=1;strokeColor=none;fillColor=none;fontColor=#000000;" vertex="1" parent="1">
          <mxGeometry x="440" y="210" width="50" height="30" as="geometry" />
        </mxCell>
        <mxCell id="8UYPgfKLzSaXdAvaArR6-168" value="&lt;b&gt;Nombre&lt;br&gt;&lt;/b&gt;" style="ellipse;whiteSpace=wrap;html=1;fontColor=#000000;fillColor=#E5CCFF;strokeColor=#330066;" vertex="1" parent="1">
          <mxGeometry x="1311" y="313.75" width="120" height="80" as="geometry" />
        </mxCell>
        <mxCell id="8UYPgfKLzSaXdAvaArR6-174" style="edgeStyle=orthogonalEdgeStyle;rounded=0;orthogonalLoop=1;jettySize=auto;html=1;exitX=1;exitY=0;exitDx=0;exitDy=0;entryX=0.5;entryY=1;entryDx=0;entryDy=0;endArrow=none;endFill=0;" edge="1" parent="1" source="8UYPgfKLzSaXdAvaArR6-169" target="8UYPgfKLzSaXdAvaArR6-173">
          <mxGeometry relative="1" as="geometry" />
        </mxCell>
        <mxCell id="8UYPgfKLzSaXdAvaArR6-175" style="edgeStyle=orthogonalEdgeStyle;rounded=0;orthogonalLoop=1;jettySize=auto;html=1;exitX=0;exitY=0;exitDx=0;exitDy=0;entryX=0.5;entryY=1;entryDx=0;entryDy=0;endArrow=none;endFill=0;" edge="1" parent="1" source="8UYPgfKLzSaXdAvaArR6-169" target="8UYPgfKLzSaXdAvaArR6-172">
          <mxGeometry relative="1" as="geometry" />
        </mxCell>
        <mxCell id="8UYPgfKLzSaXdAvaArR6-169" value="&lt;b&gt;Apellidos&lt;/b&gt;" style="ellipse;whiteSpace=wrap;html=1;fontColor=#000000;fillColor=#E5CCFF;strokeColor=#330066;" vertex="1" parent="1">
          <mxGeometry x="1486" y="313.75" width="120" height="80" as="geometry" />
        </mxCell>
        <mxCell id="8UYPgfKLzSaXdAvaArR6-172" value="&lt;b&gt;Apellido 1&lt;/b&gt;" style="ellipse;whiteSpace=wrap;html=1;fontColor=#000000;fillColor=#E5CCFF;strokeColor=#330066;" vertex="1" parent="1">
          <mxGeometry x="1400" y="193.75" width="120" height="80" as="geometry" />
        </mxCell>
        <mxCell id="8UYPgfKLzSaXdAvaArR6-173" value="&lt;b&gt;Apellido 2&lt;br&gt;&lt;/b&gt;" style="ellipse;whiteSpace=wrap;html=1;fontColor=#000000;fillColor=#E5CCFF;strokeColor=#330066;" vertex="1" parent="1">
          <mxGeometry x="1570" y="193.75" width="120" height="80" as="geometry" />
        </mxCell>
        <mxCell id="BZ3RaPWg2KNZgtzAzII2-107" style="edgeStyle=orthogonalEdgeStyle;rounded=0;orthogonalLoop=1;jettySize=auto;html=1;exitX=0;exitY=0;exitDx=0;exitDy=0;endArrow=none;endFill=0;" edge="1" parent="1" source="BZ3RaPWg2KNZgtzAzII2-104" target="BZ3RaPWg2KNZgtzAzII2-106">
          <mxGeometry relative="1" as="geometry" />
        </mxCell>
        <mxCell id="BZ3RaPWg2KNZgtzAzII2-113" style="edgeStyle=orthogonalEdgeStyle;rounded=0;orthogonalLoop=1;jettySize=auto;html=1;exitX=1;exitY=0;exitDx=0;exitDy=0;entryX=0.5;entryY=1;entryDx=0;entryDy=0;endArrow=none;endFill=0;" edge="1" parent="1" source="BZ3RaPWg2KNZgtzAzII2-104" target="BZ3RaPWg2KNZgtzAzII2-112">
          <mxGeometry relative="1" as="geometry" />
        </mxCell>
        <mxCell id="BZ3RaPWg2KNZgtzAzII2-124" value="Realiza" style="edgeStyle=orthogonalEdgeStyle;rounded=0;orthogonalLoop=1;jettySize=auto;html=1;exitX=0.5;exitY=1;exitDx=0;exitDy=0;entryX=0.5;entryY=0;entryDx=0;entryDy=0;endArrow=none;endFill=0;" edge="1" parent="1" source="BZ3RaPWg2KNZgtzAzII2-104" target="BZ3RaPWg2KNZgtzAzII2-122">
          <mxGeometry relative="1" as="geometry" />
        </mxCell>
        <mxCell id="BZ3RaPWg2KNZgtzAzII2-132" style="edgeStyle=orthogonalEdgeStyle;rounded=0;orthogonalLoop=1;jettySize=auto;html=1;exitX=0.5;exitY=0;exitDx=0;exitDy=0;entryX=0.5;entryY=1;entryDx=0;entryDy=0;endArrow=none;endFill=0;" edge="1" parent="1" source="BZ3RaPWg2KNZgtzAzII2-104" target="BZ3RaPWg2KNZgtzAzII2-131">
          <mxGeometry relative="1" as="geometry" />
        </mxCell>
        <mxCell id="BZ3RaPWg2KNZgtzAzII2-104" value="&lt;div&gt;&lt;font color=&quot;#000000&quot;&gt;&lt;b&gt;Pedido&lt;/b&gt;&lt;/font&gt;&lt;/div&gt;" style="rounded=0;whiteSpace=wrap;html=1;fillColor=#E5CCFF;fontColor=#ffffff;strokeColor=#3700CC;" vertex="1" parent="1">
          <mxGeometry x="1090" y="133.75" width="120" height="60" as="geometry" />
        </mxCell>
        <mxCell id="BZ3RaPWg2KNZgtzAzII2-106" value="&lt;b&gt;CÃ³digo&lt;br&gt;&lt;/b&gt;" style="ellipse;whiteSpace=wrap;html=1;fontColor=#ffffff;fillColor=#B266FF;strokeColor=#3700CC;" vertex="1" parent="1">
          <mxGeometry x="930" y="-30" width="120" height="80" as="geometry" />
        </mxCell>
        <mxCell id="BZ3RaPWg2KNZgtzAzII2-112" value="&lt;b&gt;Precio Total&lt;/b&gt;" style="ellipse;whiteSpace=wrap;html=1;fontColor=#000000;fillColor=#E5CCFF;strokeColor=#330066;dashed=1;dashPattern=12 12;" vertex="1" parent="1">
          <mxGeometry x="1260" y="-30" width="120" height="80" as="geometry" />
        </mxCell>
        <mxCell id="BZ3RaPWg2KNZgtzAzII2-122" value="&lt;b&gt;Realiza&lt;/b&gt;" style="rhombus;whiteSpace=wrap;html=1;strokeColor=#d6b656;fillColor=#fff2cc;" vertex="1" parent="1">
          <mxGeometry x="1070" y="567.5" width="160" height="80" as="geometry" />
        </mxCell>
        <mxCell id="BZ3RaPWg2KNZgtzAzII2-142" value="Hace" style="edgeStyle=orthogonalEdgeStyle;rounded=0;orthogonalLoop=1;jettySize=auto;html=1;entryX=0;entryY=0.5;entryDx=0;entryDy=0;endArrow=none;endFill=0;exitX=1;exitY=0.5;exitDx=0;exitDy=0;" edge="1" parent="1" source="BZ3RaPWg2KNZgtzAzII2-122" target="75">
          <mxGeometry relative="1" as="geometry">
            <mxPoint x="1130" y="607.5" as="sourcePoint" />
          </mxGeometry>
        </mxCell>
        <mxCell id="BZ3RaPWg2KNZgtzAzII2-128" value="&lt;div&gt;&lt;b&gt;Fecha de Pago&lt;/b&gt;&lt;/div&gt;" style="ellipse;whiteSpace=wrap;html=1;fontColor=#000000;fillColor=#E5CCFF;strokeColor=#330066;" vertex="1" parent="1">
          <mxGeometry x="1610" y="567.5" width="120" height="80" as="geometry" />
        </mxCell>
        <mxCell id="5qaJQphGUjZu4POKTc22-112" style="edgeStyle=isometricEdgeStyle;rounded=0;orthogonalLoop=1;jettySize=auto;html=1;exitX=0;exitY=1;exitDx=0;exitDy=0;endArrow=none;endFill=0;elbow=vertical;" edge="1" parent="1" source="75" target="5qaJQphGUjZu4POKTc22-109">
          <mxGeometry relative="1" as="geometry">
            <mxPoint x="1800" y="781.25" as="sourcePoint" />
          </mxGeometry>
        </mxCell>
        <mxCell id="5qaJQphGUjZu4POKTc22-106" value="&lt;span style=&quot;background-color: rgb(255, 255, 255);&quot;&gt;(0,n)&lt;/span&gt;" style="text;html=1;align=center;verticalAlign=middle;resizable=0;points=[];autosize=1;strokeColor=none;fillColor=none;fontColor=#000000;" vertex="1" parent="1">
          <mxGeometry x="1150" y="193.75" width="50" height="30" as="geometry" />
        </mxCell>
        <mxCell id="5qaJQphGUjZu4POKTc22-108" value="&lt;span style=&quot;background-color: rgb(255, 255, 255);&quot;&gt;(1,1)&lt;/span&gt;" style="text;html=1;align=center;verticalAlign=middle;resizable=0;points=[];autosize=1;strokeColor=none;fillColor=none;fontColor=#000000;" vertex="1" parent="1">
          <mxGeometry x="1040" y="133.75" width="50" height="30" as="geometry" />
        </mxCell>
        <mxCell id="5qaJQphGUjZu4POKTc22-109" value="&lt;b&gt;Datos bancarios&lt;/b&gt;" style="ellipse;whiteSpace=wrap;html=1;fontColor=#000000;fillColor=#E5CCFF;strokeColor=#330066;" vertex="1" parent="1">
          <mxGeometry x="1191" y="683.75" width="120" height="80" as="geometry" />
        </mxCell>
        <mxCell id="BZ3RaPWg2KNZgtzAzII2-131" value="&lt;b&gt;Fecha de compra&lt;/b&gt;" style="ellipse;whiteSpace=wrap;html=1;fontColor=#000000;fillColor=#E5CCFF;strokeColor=#330066;" vertex="1" parent="1">
          <mxGeometry x="1090" y="-30" width="120" height="80" as="geometry" />
        </mxCell>
        <mxCell id="BZ3RaPWg2KNZgtzAzII2-149" value="Receta&lt;br&gt;(SÃ­/No)" style="text;html=1;align=center;verticalAlign=middle;resizable=0;points=[];autosize=1;strokeColor=none;fillColor=none;" vertex="1" parent="1">
          <mxGeometry x="50" y="250" width="60" height="40" as="geometry" />
        </mxCell>
        <mxCell id="5qaJQphGUjZu4POKTc22-114" value="&lt;font color=&quot;#000000&quot;&gt;&lt;b&gt;Familia&lt;/b&gt;&lt;/font&gt;" style="rounded=0;whiteSpace=wrap;html=1;fillColor=#E5CCFF;fontColor=#ffffff;strokeColor=#3700CC;" vertex="1" parent="1">
          <mxGeometry x="745" y="420" width="110" height="60" as="geometry" />
        </mxCell>
        <mxCell id="5qaJQphGUjZu4POKTc22-115" value="&lt;span style=&quot;background-color: rgb(255, 255, 255);&quot;&gt;(1, n)&lt;/span&gt;" style="text;html=1;align=center;verticalAlign=middle;resizable=0;points=[];autosize=1;strokeColor=none;fillColor=none;fontColor=#000000;" vertex="1" parent="1">
          <mxGeometry x="310" y="173.75" width="50" height="30" as="geometry" />
        </mxCell>
        <mxCell id="5qaJQphGUjZu4POKTc22-116" value="&lt;span style=&quot;background-color: rgb(255, 255, 255);&quot;&gt;(0,1)&lt;/span&gt;" style="text;html=1;align=center;verticalAlign=middle;resizable=0;points=[];autosize=1;strokeColor=none;fillColor=none;fontColor=#000000;" vertex="1" parent="1">
          <mxGeometry x="380" y="173.75" width="50" height="30" as="geometry" />
        </mxCell>
        <mxCell id="BZ3RaPWg2KNZgtzAzII2-151" value="&lt;b&gt;Cantidad&lt;/b&gt;" style="ellipse;whiteSpace=wrap;html=1;fontColor=#000000;fillColor=#E5CCFF;strokeColor=#330066;" vertex="1" parent="1">
          <mxGeometry x="740" width="120" height="80" as="geometry" />
        </mxCell>
      </root>
    </mxGraphModel>
  </diagram>
</mxfile>
